name ./resultDataOpenSim/trcMotMarkerGrf/sub10/grf-12-03.mot
datacolumns 19
datarows 25
range 0.93200000 1.02800000
endheader

                time	     ground_force_vx	     ground_force_vy	     ground_force_vz	     ground_force_px	     ground_force_py	     ground_force_pz	   l_ground_force_vx	   l_ground_force_vy	   l_ground_force_vz	   l_ground_force_px	   l_ground_force_py	   l_ground_force_pz	     ground_torque_x	     ground_torque_y	     ground_torque_z	   l_ground_torque_x	   l_ground_torque_y	   l_ground_torque_z	
          0.93200000	          0.00000000	          0.00000000	          0.00000000	          0.00000000	          0.00000000	          0.00000000	        -25.47884670	        652.29268796	         29.53787828	          0.03100009	         -0.02500200	         -0.12300709	          0.00000000	          0.00000000	          0.00000000	          0.00000000	         -5.43148982	          0.00000000	
          0.93600000	          0.00000000	          0.00000000	          0.00000000	          0.00000000	          0.00000000	          0.00000000	        -23.81669480	        664.78966568	         29.86260349	          0.03140480	         -0.02500200	         -0.12269096	          0.00000000	          0.00000000	          0.00000000	          0.00000000	         -5.63160616	          0.00000000	
          0.94000000	          0.00000000	          0.00000000	          0.00000000	          0.00000000	          0.00000000	          0.00000000	        -22.18698403	        677.44147910	         30.44981396	          0.03190173	         -0.02500200	         -0.12238540	          0.00000000	          0.00000000	          0.00000000	          0.00000000	         -5.81288697	          0.00000000	
          0.94400000	          0.00000000	          0.00000000	          0.00000000	          0.00000000	          0.00000000	          0.00000000	        -20.55168051	        690.24663205	         31.24461925	          0.03245552	         -0.02500200	         -0.12209596	          0.00000000	          0.00000000	          0.00000000	          0.00000000	         -5.97895359	          0.00000000	
          0.94800000	          0.00000000	          0.00000000	          0.00000000	          0.00000000	          0.00000000	          0.00000000	        -18.86028667	        703.27380484	         32.20368605	          0.03301213	         -0.02500200	         -0.12183513	          0.00000000	          0.00000000	          0.00000000	          0.00000000	         -6.13397585	          0.00000000	
          0.95200000	          0.00000000	          0.00000000	          0.00000000	          0.00000000	          0.00000000	          0.00000000	        -17.06648416	        716.61107141	         33.30319051	          0.03351849	         -0.02500200	         -0.12161280	          0.00000000	          0.00000000	          0.00000000	          0.00000000	         -6.28176280	          0.00000000	
          0.95600000	          0.00000000	          0.00000000	          0.00000000	          0.00000000	          0.00000000	          0.00000000	        -15.12419119	        730.31800924	         34.54041725	          0.03392567	         -0.02500200	         -0.12143693	          0.00000000	          0.00000000	          0.00000000	          0.00000000	         -6.42524074	          0.00000000	
          0.96000000	          0.00000000	          0.00000000	          0.00000000	          0.00000000	          0.00000000	          0.00000000	        -12.96370043	        744.40288281	         35.92090619	          0.03420311	         -0.02500200	         -0.12131486	          0.00000000	          0.00000000	          0.00000000	          0.00000000	         -6.56618817	          0.00000000	
          0.96400000	          0.00000000	          0.00000000	          0.00000000	          0.00000000	          0.00000000	          0.00000000	        -10.47626725	        758.82708706	         37.43839216	          0.03436343	         -0.02500200	         -0.12124791	          0.00000000	          0.00000000	          0.00000000	          0.00000000	         -6.70518895	          0.00000000	
          0.96800000	          0.00000000	          0.00000000	          0.00000000	          0.00000000	          0.00000000	          0.00000000	         -7.51671955	        773.52363959	         39.06965690	          0.03445815	         -0.02500200	         -0.12122681	          0.00000000	          0.00000000	          0.00000000	          0.00000000	         -6.84182872	          0.00000000	
          0.97200000	          0.00000000	          0.00000000	          0.00000000	          0.00000000	          0.00000000	          0.00000000	         -3.92163318	        788.41215509	         40.78106286	          0.03454227	         -0.02500200	         -0.12123510	          0.00000000	          0.00000000	          0.00000000	          0.00000000	         -6.97510780	          0.00000000	
          0.97600000	          0.00000000	          0.00000000	          0.00000000	          0.00000000	          0.00000000	          0.00000000	          0.45877350	        803.40741133	         42.53014942	          0.03464761	         -0.02500200	         -0.12125326	          0.00000000	          0.00000000	          0.00000000	          0.00000000	         -7.10392662	          0.00000000	
          0.98000000	          0.00000000	          0.00000000	          0.00000000	          0.00000000	          0.00000000	          0.00000000	          5.72791064	        818.41894031	         44.26946314	          0.03477339	         -0.02500200	         -0.12126968	          0.00000000	          0.00000000	          0.00000000	          0.00000000	         -7.22743327	          0.00000000	
          0.98400000	          0.00000000	          0.00000000	          0.00000000	          0.00000000	          0.00000000	          0.00000000	         11.91921179	        833.32613701	         45.96134908	          0.03489001	         -0.02500216	         -0.12128874	          0.00000000	          0.00000000	          0.00000000	          0.00000000	         -7.34509789	          0.00000000	
          0.98800000	          0.00000000	          0.00000000	          0.00000000	          0.00000000	          0.00000000	          0.00000000	         18.98204908	        847.95693683	         47.59235243	          0.03495905	         -0.02500300	         -0.12132155	          0.00000000	          0.00000000	          0.00000000	          0.00000000	         -7.45652875	          0.00000000	
          0.99200000	          0.00000000	          0.00000000	          0.00000000	          0.00000000	          0.00000000	          0.00000000	         26.79409820	        862.09323334	         49.16788807	          0.03496100	         -0.02500300	         -0.12136428	          0.00000000	          0.00000000	          0.00000000	          0.00000000	         -7.56114720	          0.00000000	
          0.99600000	          0.00000000	          0.00000000	          0.00000000	          0.00000000	          0.00000000	          0.00000000	         35.21501171	        875.45223140	         50.68524762	          0.03490332	         -0.02500300	         -0.12140142	          0.00000000	          0.00000000	          0.00000000	          0.00000000	         -7.65790213	          0.00000000	
          1.00000000	          0.00000000	          0.00000000	          0.00000000	          0.00000000	          0.00000000	          0.00000000	         44.14453836	        887.66208368	         52.11563216	          0.03481615	         -0.02500300	         -0.12142277	          0.00000000	          0.00000000	          0.00000000	          0.00000000	         -7.74521978	          0.00000000	
          1.00400000	          0.00000000	          0.00000000	          0.00000000	          0.00000000	          0.00000000	          0.00000000	         53.52425707	        898.31386318	         53.41636905	          0.03475055	         -0.02500300	         -0.12141735	          0.00000000	          0.00000000	          0.00000000	          0.00000000	         -7.82123949	          0.00000000	
          1.00800000	          0.00000000	          0.00000000	          0.00000000	          0.00000000	          0.00000000	          0.00000000	         63.28182725	        907.06709558	         54.55429250	          0.03473587	         -0.02500300	         -0.12137980	          0.00000000	          0.00000000	          0.00000000	          0.00000000	         -7.88415839	          0.00000000	
          1.01200000	          0.00000000	          0.00000000	          0.00000000	          0.00000000	          0.00000000	          0.00000000	         73.27800954	        913.72759299	         55.51762968	          0.03478288	         -0.02500227	         -0.12130639	          0.00000000	          0.00000000	          0.00000000	          0.00000000	         -7.93247384	          0.00000000	
          1.01600000	          0.00000000	          0.00000000	          0.00000000	          0.00000000	          0.00000000	          0.00000000	         83.30151716	        918.26018932	         56.30871120	          0.03488480	         -0.02500203	         -0.12121179	          0.00000000	          0.00000000	          0.00000000	          0.00000000	         -7.96506784	          0.00000000	
          1.02000000	          0.00000000	          0.00000000	          0.00000000	          0.00000000	          0.00000000	          0.00000000	         93.11603476	        920.75825991	         56.92487385	          0.03502623	         -0.02500200	         -0.12112263	          0.00000000	          0.00000000	          0.00000000	          0.00000000	         -7.98114586	          0.00000000	
          1.02400000	          0.00000000	          0.00000000	          0.00000000	          0.00000000	          0.00000000	          0.00000000	        102.53573472	        921.38697599	         57.35146217	          0.03520580	         -0.02500200	         -0.12104017	          0.00000000	          0.00000000	          0.00000000	          0.00000000	         -7.98000921	          0.00000000	
          1.02800000	          0.00000000	          0.00000000	          0.00000000	          0.00000000	          0.00000000	          0.00000000	        111.48027077	        920.29294299	         57.57284811	          0.03542737	         -0.02500200	         -0.12094834	          0.00000000	          0.00000000	          0.00000000	          0.00000000	         -7.96071138	          0.00000000	
